#!OML:ASF H:\Male1\Project 1\Capture day 1\Session 1\Male1.ASF
:FULLY-SPECIFIED
:DEGREES
329
root -9.66981 15.165 6.50191 180.697 4.31764 -179.588
lowerback 8.52097 0.593808 -5.47184
upperback 7.57031 1.42474 -1.48843
thorax 3.05913 0.900119 1.45872
lowerneck -7.17098 -8.45287 -3.37335
upperneck 14.2566 -12.2624 11.1915
head 6.42802 -5.10887 3.11552
rclavicle -1.98785e-015 -5.725e-014
rhumerus -34.0467 37.7295 -104.592
rradius 92.6092
rwrist -41.0023
rhand -25.7003 -18.5891
rfingers 7.12502
rthumb 0.835224 -48.5672
lclavicle -1.98785e-015 -5.725e-014
lhumerus -42.8541 -13.7571 86.2395
lradius 102.821
lwrist 31.5155
lhand -27.7126 29.2397
lfingers 7.12502
lthumb -1.10835 59.2166
rfemur -22.9865 -4.27642 23.9597
rtibia 37.5573
rfoot -41.1581 -32.6518
rtoes 12.2831
lfemur 2.12271 -6.68972 -21.0769
ltibia 22.2313
lfoot -35.6094 31.8137
ltoes 12.3048
330
root -9.61549 15.1442 6.42095 180.851 6.4862 -179.434
lowerback 8.07047 0.57705 -4.90168
upperback 7.31523 1.35967 -1.4188
thorax 3.03832 0.855853 1.22119
lowerneck -7.40182 -8.24436 -2.95419
upperneck 14.4632 -11.9644 10.5609
head 6.4442 -4.97973 2.86922
rclavicle -1.17283e-014 -1.03368e-014
rhumerus -34.4455 37.3757 -104.904
rradius 92.702
rwrist -40.9333
rhand -26.4421 -18.8871
rfingers 7.12502
rthumb 0.118793 -48.8668
lclavicle -1.17283e-014 -1.03368e-014
lhumerus -43.2053 -13.3598 86.474
lradius 102.926
lwrist 31.6181
lhand -27.9156 29.457
lfingers 7.12502
lthumb -1.3044 59.4327
rfemur -22.4306 -3.86075 24.3774
rtibia 36.6199
rfoot -41.6506 -33.5366
rtoes 11.3232
lfemur 2.29639 -5.42174 -20.8449
ltibia 22.9006
lfoot -36.6543 32.0026
ltoes 12.5944
331
root -9.54842 15.1245 6.33996 180.992 8.60619 -179.081
lowerback 7.72663 0.552004 -4.22334
upperback 7.06123 1.28447 -1.28404
thorax 2.96157 0.812267 0.988316
lowerneck -7.60818 -8.01152 -2.54564
upperneck 14.6504 -11.6318 9.94211
head 6.45237 -4.83593 2.63262
rclavicle -9.14409e-015 1.59028e-015
rhumerus -34.8329 37.051 -105.236
rradius 92.7697
rwrist -40.8654
rhand -27.0934 -19.0951
rfingers 7.12502
rthumb -0.510266 -49.0742
lclavicle -9.14409e-015 1.59028e-015
lhumerus -43.5608 -12.9329 86.6739
lradius 103.048
lwrist 31.6841
lhand -27.8673 29.6663
lfingers 7.12502
lthumb -1.25776 59.6423
rfemur -21.6905 -3.34424 25.0804
rtibia 35.5773
rfoot -41.422 -34.0668
rtoes 9.74923
lfemur 2.23536 -4.03696 -20.2822
ltibia 24.1217
lfoot -37.3928 31.9769
ltoes 12.4297
332
root -9.47069 15.1067 6.257 181.099 10.8032 -178.555
lowerback 7.4649 0.531942 -3.4958
upperback 6.83608 1.221 -1.07208
thorax 2.87013 0.77739 0.80515
lowerneck -7.76236 -7.73066 -2.22932
upperneck 14.7971 -11.2258 9.36864
head 6.44548 -4.66306 2.43366
rclavicle -2.88238e-014 3.73715e-014
rhumerus -35.2064 36.8729 -105.556
rradius 92.7896
rwrist -40.7428
rhand -27.4594 -19.2157
rfingers 7.12502
rthumb -0.863759 -49.1937
lclavicle -2.88238e-014 3.73715e-014
lhumerus -43.9148 -12.366 86.8687
lradius 103.171
lwrist 31.7354
lhand -27.6518 29.8617
lfingers 7.12502
lthumb -1.04961 59.8388
rfemur -20.751 -2.63765 26.0184
rtibia 34.4439
rfoot -40.6059 -34.2003
rtoes 7.94311
lfemur 2.02622 -2.54436 -19.4441
ltibia 25.8779
lfoot -37.7548 31.8249
ltoes 11.849
333
root -9.37836 15.0897 6.17349 181.099 13.1579 -177.913
lowerback 7.33763 0.544826 -2.88581
upperback 6.68781 1.20914 -0.782175
thorax 2.78288 0.768252 0.763588
lowerneck -7.88272 -7.39779 -2.01119
upperneck 14.8986 -10.745 8.87705
head 6.42782 -4.45706 2.28385
rclavicle 7.55382e-015 2.06736e-014
rhumerus -35.5124 36.8779 -105.829
rradius 92.738
rwrist -40.5537
rhand -27.4911 -19.2931
rfingers 7.12502
rthumb -0.894437 -49.271
lclavicle 7.55382e-015 2.06736e-014
lhumerus -44.2186 -11.6322 87.0344
lradius 103.263
lwrist 31.7363
lhand -27.218 30.0044
lfingers 7.12502
lthumb -0.630636 59.9832
rfemur -19.5509 -1.53964 27.1333
rtibia 33.2776
rfoot -39.5573 -34.1074
rtoes 6.28637
lfemur 1.8085 -0.814657 -18.3367
ltibia 28.1155
lfoot -37.4949 31.5206
ltoes 10.8466
334
root -9.28093 15.0775 6.09344 181.101 15.5549 -177.287
lowerback 7.30255 0.569363 -2.32777
upperback 6.57647 1.22287 -0.525979
thorax 2.68463 0.775811 0.71352
lowerneck -7.97703 -7.04724 -1.83154
upperneck 14.9522 -10.2496 8.51581
head 6.40254 -4.23758 2.18318
rclavicle -4.59193e-014 3.97569e-015
rhumerus -35.69 36.9164 -106.059
rradius 92.5903
rwrist -40.3228
rhand -27.0959 -19.3296
rfingers 7.12502
rthumb -0.512714 -49.3087
lclavicle -4.59193e-014 3.97569e-015
lhumerus -44.436 -10.8865 87.1303
lradius 103.298
lwrist 31.7394
lhand -26.6791 30.0918
lfingers 7.12502
lthumb -0.110171 60.0715
rfemur -18.3155 -0.239956 28.2476
rtibia 32.1594
rfoot -38.3941 -33.9095
rtoes 5.03266
lfemur 1.42456 0.995535 -17.1276
ltibia 30.7712
lfoot -36.4662 31.1112
ltoes 9.82334
335
root -9.18047 15.0705 6.0162 181.091 17.9691 -176.855
lowerback 7.30149 0.614148 -1.9488
upperback 6.49629 1.26837 -0.377857
thorax 2.601 0.798819 0.650312
lowerneck -8.05948 -6.69571 -1.64647
upperneck 14.9753 -9.7686 8.28286
head 6.37589 -4.01448 2.12084
rclavicle 3.63776e-014 -1.59028e-014
rhumerus -35.7177 36.9107 -106.256
rradius 92.3398
rwrist -40.046
rhand -26.6165 -19.4033
rfingers 7.12502
rthumb -0.0497123 -49.383
lclavicle 3.63776e-014 -1.59028e-014
lhumerus -44.5582 -10.2035 87.1384
lradius 103.267
lwrist 31.7698
lhand -26.1372 30.1203
lfingers 7.12502
lthumb 0.413219 60.0997
rfemur -17.1306 1.16236 29.1642
rtibia 31.1722
rfoot -37.3246 -33.6737
rtoes 4.05281
lfemur 0.853763 2.78903 -16.034
ltibia 33.7746
lfoot -34.6475 30.6443
ltoes 9.28113
336
root -9.08191 15.07 5.94095 181.073 20.3298 -176.722
lowerback 7.28746 0.647344 -1.77671
upperback 6.42292 1.2964 -0.372415
thorax 2.53327 0.810174 0.557009
lowerneck -8.14529 -6.33857 -1.43642
upperneck 14.991 -9.29348 8.12866
head 6.3529 -3.78552 2.07829
rclavicle -1.78906e-015 1.90833e-014
rhumerus -35.6396 36.8965 -106.441
rradius 92.0217
rwrist -39.8447
rhand -26.1477 -19.5023
rfingers 7.12502
rthumb 0.403121 -49.4817
lclavicle -1.78906e-015 1.90833e-014
lhumerus -44.6019 -9.58096 87.0564
lradius 103.175
lwrist 31.7951
lhand -25.6035 30.0973
lfingers 7.12502
lthumb 0.928667 60.075
rfemur -16.1001 2.45119 29.7529
rtibia 30.3586
rfoot -36.309 -33.4268
rtoes 3.24235
lfemur 0.0131695 4.40039 -15.2359
ltibia 37.0615
lfoot -32.0787 30.2186
ltoes 9.58858
337
root -8.98661 15.0737 5.86459 181.025 22.6497 -176.922
lowerback 7.22346 0.678623 -1.80493
upperback 6.33649 1.31636 -0.518038
thorax 2.48055 0.813697 0.421409
lowerneck -8.23337 -5.98332 -1.18867
upperneck 15.0068 -8.82938 7.99826
head 6.33234 -3.55717 2.03571
rclavicle -3.27995e-014 2.54444e-014
rhumerus -35.5172 36.8565 -106.636
rradius 91.6848
rwrist -39.74
rhand -25.7104 -19.6108
rfingers 7.12502
rthumb 0.82548 -49.589
lclavicle -3.27995e-014 2.54444e-014
lhumerus -44.614 -9.06921 86.9044
lradius 103.053
lwrist 31.8338
lhand -25.1567 30.0604
lfingers 7.12502
lthumb 1.36018 60.0358
rfemur -15.2341 3.5245 29.974
rtibia 29.691
rfoot -35.2455 -33.2251
rtoes 1.91624
lfemur -1.11646 5.75554 -14.8301
ltibia 40.565
lfoot -28.8499 29.9319
ltoes 10.5951
338
root -8.89139 15.0803 5.78735 180.946 24.9325 -177.212
lowerback 7.18907 0.716923 -1.85772
upperback 6.23564 1.34599 -0.723575
thorax 2.3975 0.823467 0.236648
lowerneck -8.31042 -5.64145 -0.911715
upperneck 15.0154 -8.38647 7.86238
head 6.30911 -3.33827 1.98471
rclavicle 4.23411e-014 -4.13472e-014
rhumerus -35.3948 36.7492 -106.847
rradius 91.3622
rwrist -39.6652
rhand -25.2983 -19.7241
rfingers 7.12502
rthumb 1.22345 -49.7003
lclavicle 4.23411e-014 -4.13472e-014
lhumerus -44.6463 -8.70939 86.721
lradius 102.95
lwrist 31.9051
lhand -24.8546 30.0537
lfingers 7.12502
lthumb 1.65198 60.027
rfemur -14.4198 4.47785 30.0965
rtibia 29.0993
rfoot -34.2088 -33.0949
rtoes 0.226843
lfemur -2.46261 6.82917 -14.57
ltibia 44.2029
lfoot -25.0427 29.5939
ltoes 11.5824
339
root -8.79886 15.0865 5.70986 180.939 27.1531 -177.309
lowerback 7.2347 0.74691 -1.67773
upperback 6.11708 1.3729 -0.896682
thorax 2.25519 0.839592 -0.0466481
lowerneck -8.36845 -5.31849 -0.649328
upperneck 15.0022 -7.96724 7.72911
head 6.27935 -3.13317 1.93487
rclavicle -1.21259e-014 6.36111e-015
rhumerus -35.2909 36.5963 -107.028
rradius 91.0847
rwrist -39.5245
rhand -24.831 -19.8078
rfingers 7.12502
rthumb 1.67476 -49.781
lclavicle -1.21259e-014 6.36111e-015
lhumerus -44.7049 -8.49523 86.5452
lradius 102.881
lwrist 31.9948
lhand -24.5919 30.0666
lfingers 7.12502
lthumb 1.9057 60.0378
rfemur -13.6025 5.34965 30.3835
rtibia 28.5036
rfoot -33.2561 -32.9395
rtoes -1.48455
lfemur -4.00136 7.57802 -14.203
ltibia 47.872
lfoot -20.9513 28.7292
ltoes 11.8281
340
root -8.70916 15.0893 5.63099 181.025 29.3623 -177.171
lowerback 7.34636 0.783132 -1.27699
upperback 6.0092 1.41906 -1.0038
thorax 2.09058 0.87147 -0.387853
lowerneck -8.42872 -5.01591 -0.445834
upperneck 14.9484 -7.57034 7.60868
head 6.24248 -2.94408 1.89618
rclavicle 7.15625e-015 -1.74931e-014
rhumerus -35.1722 36.4516 -107.124
rradius 90.8743
rwrist -39.3144
rhand -24.3975 -19.9265
rfingers 7.12502
rthumb 2.09351 -49.8959
lclavicle 7.15625e-015 -1.74931e-014
lhumerus -44.7446 -8.38524 86.417
lradius 102.833
lwrist 32.116
lhand -24.4064 30.1618
lfingers 7.12502
lthumb 2.08487 60.1314
rfemur -12.725 6.23284 30.8629
rtibia 27.8698
rfoot -32.5018 -32.6218
rtoes -2.88973
lfemur -5.67789 8.03106 -13.7358
ltibia 51.4322
lfoot -17.0503 27.0703
ltoes 10.5628
341
root -8.61783 15.0862 5.5517 181.107 31.4962 -176.875
lowerback 7.564 0.810879 -0.828068
upperback 5.95623 1.46367 -1.03152
thorax 1.92511 0.904693 -0.676039
lowerneck -8.51253 -4.73743 -0.317922
upperneck 14.8502 -7.20052 7.50734
head 6.20148 -2.77364 1.87252
rclavicle 1.68967e-014 -3.18055e-015
rhumerus -35.0031 36.3641 -107.106
rradius 90.7212
rwrist -39.0736
rhand -24.0705 -20.0732
rfingers 7.12502
rthumb 2.40923 -50.0393
lclavicle 1.68967e-014 -3.18055e-015
lhumerus -44.7212 -8.32605 86.344
lradius 102.767
lwrist 32.2175
lhand -24.2042 30.3116
lfingers 7.12502
lthumb 2.28018 60.2791
rfemur -11.6933 7.263 31.4919
rtibia 27.2344
rfoot -32.1353 -32.2718
rtoes -3.86929
lfemur -7.37319 8.20217 -13.232
ltibia 54.7203
lfoot -13.7501 24.5505
ltoes 7.12147
342
root -8.5287 15.0798 5.4701 181.16 33.5389 -176.58
lowerback 7.86886 0.831432 -0.372521
upperback 5.93387 1.50665 -1.05166
thorax 1.74489 0.938736 -0.962077
lowerneck -8.61428 -4.50093 -0.258147
upperneck 14.7234 -6.88465 7.44132
head 6.16124 -2.63171 1.86595
rclavicle 5.02925e-014 -4.29375e-014
rhumerus -34.789 36.2867 -107.002
rradius 90.6035
rwrist -38.8907
rhand -23.9268 -20.206
rfingers 7.12502
rthumb 2.54805 -50.1706
lclavicle 5.02925e-014 -4.29375e-014
lhumerus -44.6237 -8.34693 86.3104
lradius 102.646
lwrist 32.3286
lhand -23.9684 30.4768
lfingers 7.12502
lthumb 2.5079 60.4418
rfemur -10.6386 8.30056 32.0866
rtibia 26.7068
rfoot -31.9711 -31.8809
rtoes -4.77651
lfemur -9.11934 8.07964 -12.9216
ltibia 57.583
lfoot -11.6847 21.468
ltoes 2.82954
